/* XPM */
static char * tonnage128_xpm[] = {
"128 128 3 1",
" 	c None",
".	c #D9DADA",
"+	c #EF7F1A",
"                                                                                                                                ",
"                                                                                                                                ",
"                                                                                                                                ",
"                                                                                                                                ",
"                                                                                                                                ",
"                                                                                                                                ",
"                                                                                                                                ",
"                                                                                                                                ",
"                                                                                                                                ",
"                                                                                                                                ",
"                                                                                                                                ",
"                                                                                                                                ",
"                                                                                                                                ",
"                                                                                                                                ",
"                                                                                                                                ",
"                                                                                                                                ",
"                                                                                                                                ",
"                                                                                                                                ",
"                                                                                                                                ",
"                                                                                                                                ",
"                                                                                                                                ",
"                                   ..........                                      +++++++++                                    ",
"                                 ..............                                 ++++++++++++++                                  ",
"                                .................                              +++++++++++++++++                                ",
"                               ...................                            +++++++++++++++++++                               ",
"                              .....................                          +++++++++++++++++++++                              ",
"                             .......................                        +++++++++++++++++++++++                             ",
"                             .......................                        +++++++++++++++++++++++                             ",
"                            .........................                      +++++++++++++++++++++++++                            ",
"                            .........................                      +++++++++++++++++++++++++                            ",
"                           ...........................                    +++++++++++++++++++++++++++                           ",
"                           ...........................                    +++++++++++++++++++++++++++                           ",
"                           ...........................                    +++++++++++++++++++++++++++                           ",
"                           ...........................                    +++++++++++++++++++++++++++                           ",
"                           ...........................                    +++++++++++++++++++++++++++                           ",
"           .               ...........................                    +++++++++++++++++++++++++++               +           ",
"           ..              ...........................                    +++++++++++++++++++++++++++              ++           ",
"          ...              ...........................                    +++++++++++++++++++++++++++              +++          ",
"          ....              .........................                      +++++++++++++++++++++++++              ++++          ",
"          .....             .........................                      +++++++++++++++++++++++++             +++++          ",
"         ......             ........................                       ++++++++++++++++++++++++              ++++++         ",
"         .......             .......................                        +++++++++++++++++++++++             +++++++         ",
"        .........             .....................                          +++++++++++++++++++++             +++++++++        ",
"        ..........             ...................                            +++++++++++++++++++             ++++++++++        ",
"        ...........             .................                              +++++++++++++++++             +++++++++++        ",
"       .............             ...............                                +++++++++++++++             +++++++++++++       ",
"       ..............              ...........                                    +++++++++++              ++++++++++++++       ",
"       ...............                .....                                          +++++                +++++++++++++++       ",
"      .................                                                                                  +++++++++++++++++      ",
"      ..................                                                                                ++++++++++++++++++      ",
"      ...................                                                                              +++++++++++++++++++      ",
"      ....................                                                                            ++++++++++++++++++++      ",
"     ......................                                                                          ++++++++++++++++++++++     ",
"     ........................                                                                      ++++++++++++++++++++++++     ",
"     .........................                                                                    +++++++++++++++++++++++++     ",
"     ...........................                                                                +++++++++++++++++++++++++++     ",
"     ............................                                                              ++++++++++++++++++++++++++++     ",
"     ..............................                                                          ++++++++++++++++++++++++++++++     ",
"     ................................                                                      ++++++++++++++++++++++++++++++++     ",
"    ...................................                                                  +++++++++++++++++++++++++++++++++++    ",
"    .....................................                                              +++++++++++++++++++++++++++++++++++++    ",
"    ........................................                                        ++++++++++++++++++++++++++++++++++++++++    ",
"    ...........................................                                  +++++++++++++++++++++++++++++++++++++++++++    ",
"    ...............................................                          +++++++++++++++++++++++++++++++++++++++++++++++    ",
"    .....................................................              +++++++++++++++++++++++++++++++++++++++++++++++++++++    ",
"    .......................................................          +++++++++++++++++++++++++++++++++++++++++++++++++++++++    ",
"    .......................................................          +++++++++++++++++++++++++++++++++++++++++++++++++++++++    ",
"    .......................................................          +++++++++++++++++++++++++++++++++++++++++++++++++++++++    ",
"    .......................................................          +++++++++++++++++++++++++++++++++++++++++++++++++++++++    ",
"     ......................................................          ++++++++++++++++++++++++++++++++++++++++++++++++++++++     ",
"     ......................................................          ++++++++++++++++++++++++++++++++++++++++++++++++++++++     ",
"     ......................................................          ++++++++++++++++++++++++++++++++++++++++++++++++++++++     ",
"     ......................................................          ++++++++++++++++++++++++++++++++++++++++++++++++++++++     ",
"     ....................................................               +++++++++++++++++++++++++++++++++++++++++++++++++++     ",
"     ...............................................                        +++++++++++++++++++++++++++++++++++++++++++++++     ",
"     ............................................                              ++++++++++++++++++++++++++++++++++++++++++++     ",
"      ..........................................                               +++++++++++++++++++++++++++++++++++++++++++      ",
"      ..........................................                                ++++++++++++++++++++++++++++++++++++++++++      ",
"      ..........................................                                ++++++++++++++++++++++++++++++++++++++++++      ",
"      ..........................................                                ++++++++++++++++++++++++++++++++++++++++++      ",
"       .........................................                                +++++++++++++++++++++++++++++++++++++++++       ",
"       .........................................                                +++++++++++++++++++++++++++++++++++++++++       ",
"       .........................................                                +++++++++++++++++++++++++++++++++++++++++       ",
"        ........................................                                ++++++++++++++++++++++++++++++++++++++++        ",
"        ........................................                                ++++++++++++++++++++++++++++++++++++++++        ",
"        ........................................                                ++++++++++++++++++++++++++++++++++++++++        ",
"         .......................................                                +++++++++++++++++++++++++++++++++++++++         ",
"         .......................................                                +++++++++++++++++++++++++++++++++++++++         ",
"          ......................................                                ++++++++++++++++++++++++++++++++++++++          ",
"          ......................................                               +++++++++++++++++++++++++++++++++++++++          ",
"          .......................................                              +++++++++++++++++++++++++++++++++++++++          ",
"           ......................................                              ++++++++++++++++++++++++++++++++++++++           ",
"            .....................................                              +++++++++++++++++++++++++++++++++++++            ",
"            .....................................                              +++++++++++++++++++++++++++++++++++++            ",
"             ....................................                             +++++++++++++++++++++++++++++++++++++             ",
"             .....................................                            +++++++++++++++++++++++++++++++++++++             ",
"              ....................................                            ++++++++++++++++++++++++++++++++++++              ",
"               ...................................                            +++++++++++++++++++++++++++++++++++               ",
"               ...................................                           ++++++++++++++++++++++++++++++++++++               ",
"                ...................................                          +++++++++++++++++++++++++++++++++++                ",
"                 ..................................                          ++++++++++++++++++++++++++++++++++                 ",
"                  .................................                          +++++++++++++++++++++++++++++++++                  ",
"                  ..................................                        ++++++++++++++++++++++++++++++++++                  ",
"                   .................................                        +++++++++++++++++++++++++++++++++                   ",
"                    ................................                       +++++++++++++++++++++++++++++++++                    ",
"                     ................................                      ++++++++++++++++++++++++++++++++                     ",
"                      ...............................                      +++++++++++++++++++++++++++++++                      ",
"                       ...............................                    +++++++++++++++++++++++++++++++                       ",
"                        ..............................                    ++++++++++++++++++++++++++++++                        ",
"                         .............................                    +++++++++++++++++++++++++++++                         ",
"                           ............................                  ++++++++++++++++++++++++++++                           ",
"                            ...........................                  +++++++++++++++++++++++++++                            ",
"                             ...........................                +++++++++++++++++++++++++++                             ",
"                               .........................                +++++++++++++++++++++++++                               ",
"                                .........................              +++++++++++++++++++++++++                                ",
"                                  .......................              +++++++++++++++++++++++                                  ",
"                                    ......................            ++++++++++++++++++++++                                    ",
"                                     ......................          ++++++++++++++++++++++                                     ",
"                                        ...................          +++++++++++++++++++                                        ",
"                                          ..................        ++++++++++++++++++                                          ",
"                                             ...............       ++++++++++++++++                                             ",
"                                                .............      +++++++++++++                                                ",
"                                                    ..........    ++++++++++                                                    ",
"                                                           ....  ++++                                                           ",
"                                                                                                                                ",
"                                                                                                                                ",
"                                                                                                                                ",
"                                                                                                                                "};
